<svg width="907" height="1280" xmlns="http://www.w3.org/2000/svg" preserveAspectRatio="xMidYMid meet" version="1.0">
 <g>
  <title>Layer 1</title>
  <g id="svg_1" fill="#000000" transform="translate(0.000000,1280.000000) scale(0.100000,-0.100000)">
   <path id="svg_2" d="m4245,12794c-1839,-119 -3296,-1064 -3913,-2539c-151,-360 -251,-750 -303,-1186c-30,-244 -32,-686 -5,-914c98,-835 397,-1736 942,-2835c604,-1220 1442,-2539 2540,-4000c319,-425 1011,-1307 1026,-1309c14,-2 676,838 1021,1297c2406,3198 3633,5834 3508,7537c-80,1091 -470,1971 -1182,2672c-717,706 -1688,1138 -2829,1259c-138,14 -674,26 -805,18z"/>
  </g>
  <text transform="matrix(17, 0, 0, 11.5581, -6504, -3596.5)" xml:space="preserve" text-anchor="start" font-family="'Roboto Slab'" font-size="24" id="svg_4" y="357.45069" x="404.29891" stroke-width="0" stroke="#000" fill="#ffffff">1</text>
 </g>
</svg>